<?xml version="1.0" encoding="UTF-8"?>
<svg xmlns="http://www.w3.org/2000/svg" xmlns:xlink="http://www.w3.org/1999/xlink" width="300px" height="300px" viewBox="0 0 300 300" version="1.1">
<g id="surface1">
<path style="fill-rule:evenodd;fill:rgb(0%,0%,0%);fill-opacity:1;stroke-width:1.5;stroke-linecap:butt;stroke-linejoin:round;stroke:rgb(0%,0%,0%);stroke-opacity:1;stroke-miterlimit:4;" d="M 9 36 C 12.390234 35.030273 19.109766 36.430078 22.5 34.000195 C 25.890234 36.430078 32.609766 35.030273 36 36 C 36 36 37.65 36.540234 39 37.999805 C 38.319727 38.970117 37.35 38.990039 36 38.500195 C 32.609766 37.529883 25.890234 38.960156 22.5 37.5 C 19.109766 38.960156 12.390234 37.529883 9 38.500195 C 7.65 38.990039 6.680273 38.970117 6 37.999805 C 7.35 36.540234 9 36 9 36 Z M 9 36 " transform="matrix(6.666667,0,0,6.666667,0,4)"/>
<path style="fill-rule:evenodd;fill:rgb(0%,0%,0%);fill-opacity:1;stroke-width:1.5;stroke-linecap:butt;stroke-linejoin:round;stroke:rgb(0%,0%,0%);stroke-opacity:1;stroke-miterlimit:4;" d="M 15 31.999805 C 17.500195 34.5 27.499805 34.5 30 31.999805 C 30.499805 30.499805 30 30 30 30 C 30 27.499805 27.499805 25.999805 27.499805 25.999805 C 33 24.499805 33.499805 14.500195 22.5 10.5 C 11.500195 14.500195 12 24.499805 17.500195 25.999805 C 17.500195 25.999805 15 27.499805 15 30 C 15 30 14.500195 30.499805 15 31.999805 Z M 15 31.999805 " transform="matrix(6.666667,0,0,6.666667,0,4)"/>
<path style="fill-rule:evenodd;fill:rgb(0%,0%,0%);fill-opacity:1;stroke-width:1.5;stroke-linecap:butt;stroke-linejoin:round;stroke:rgb(0%,0%,0%);stroke-opacity:1;stroke-miterlimit:4;" d="M 25.000195 7.999805 C 25.000195 9.380859 23.880469 10.5 22.5 10.5 C 21.119531 10.5 19.999805 9.380859 19.999805 7.999805 C 19.999805 6.619336 21.119531 5.500195 22.5 5.500195 C 23.880469 5.500195 25.000195 6.619336 25.000195 7.999805 Z M 25.000195 7.999805 " transform="matrix(6.666667,0,0,6.666667,0,4)"/>
<path style="fill:none;stroke-width:1.5;stroke-linecap:round;stroke-linejoin:miter;stroke:rgb(100%,100%,100%);stroke-opacity:1;stroke-miterlimit:4;" d="M 17.500195 25.999805 L 27.499805 25.999805 M 15 30 L 30 30 M 22.5 15.499805 L 22.5 20.500195 M 19.999805 18 L 25.000195 18 " transform="matrix(6.666667,0,0,6.666667,0,4)"/>
</g>
</svg>
