<?xml version="1.0" encoding="UTF-8"?>
<svg xmlns="http://www.w3.org/2000/svg" xmlns:xlink="http://www.w3.org/1999/xlink" width="1000px" height="1000px" viewBox="0 0 1000 1000" version="1.1">
<g id="surface1">
<path style="fill-rule:nonzero;fill:rgb(0%,0%,0%);fill-opacity:1;stroke-width:1.5;stroke-linecap:round;stroke-linejoin:miter;stroke:rgb(0%,0%,0%);stroke-opacity:1;stroke-miterlimit:4;" d="M 22.5 9 C 20.290078 9 18.499922 10.78998 18.499922 13.000078 C 18.499922 13.890059 18.789961 14.710078 19.280039 15.37998 C 17.329922 16.500059 15.999961 18.589922 15.999961 21.000059 C 15.999961 23.02998 16.940039 24.84 18.409922 26.030039 C 15.410039 27.09 11.000039 31.57998 11.000039 39.49998 L 33.999961 39.49998 C 33.999961 31.57998 29.589961 27.09 26.590078 26.030039 C 28.059961 24.84 29.000039 23.02998 29.000039 21.000059 C 29.000039 18.589922 27.670078 16.500059 25.719961 15.37998 C 26.210039 14.710078 26.500078 13.890059 26.500078 13.000078 C 26.500078 10.78998 24.709922 9 22.5 9 Z M 22.5 9 " transform="matrix(22.222222,0,0,22.222222,0,0)"/>
</g>
</svg>
