<?xml version="1.0" encoding="UTF-8"?>
<svg xmlns="http://www.w3.org/2000/svg" xmlns:xlink="http://www.w3.org/1999/xlink" width="300px" height="300px" viewBox="0 0 300 300" version="1.1">
<g id="surface1">
<path style="fill-rule:nonzero;fill:rgb(100%,100%,100%);fill-opacity:1;stroke-width:1.5;stroke-linecap:round;stroke-linejoin:miter;stroke:rgb(0%,0%,0%);stroke-opacity:1;stroke-miterlimit:4;" d="M 22.5 9 C 20.289844 9 18.499805 10.790039 18.499805 13.000195 C 18.499805 13.890234 18.789844 14.709961 19.280273 15.380273 C 17.330273 16.5 16.000195 18.590039 16.000195 21 C 16.000195 23.030273 16.940039 24.840234 18.410156 26.030273 C 15.410156 27.090234 10.999805 31.580273 10.999805 39.499805 L 34.000195 39.499805 C 34.000195 31.580273 29.589844 27.090234 26.589844 26.030273 C 28.059961 24.840234 28.999805 23.030273 28.999805 21 C 28.999805 18.590039 27.669727 16.5 25.719727 15.380273 C 26.210156 14.709961 26.500195 13.890234 26.500195 13.000195 C 26.500195 10.790039 24.710156 9 22.5 9 Z M 22.5 9 " transform="matrix(6.666667,0,0,6.666667,0,0)"/>
</g>
</svg>
