<?xml version="1.0" encoding="UTF-8"?>
<svg xmlns="http://www.w3.org/2000/svg" xmlns:xlink="http://www.w3.org/1999/xlink" width="300px" height="300px" viewBox="0 0 300 300" version="1.1">
<g id="surface1">
<path style="fill-rule:nonzero;fill:rgb(100%,100%,100%);fill-opacity:1;stroke-width:1.5;stroke-linecap:butt;stroke-linejoin:round;stroke:rgb(0%,0%,0%);stroke-opacity:1;stroke-miterlimit:4;" d="M 9 25.999805 C 17.500195 24.499805 30 24.499805 36 25.999805 L 38.500195 13.5 L 31.000195 25.000195 L 30.700195 10.900195 L 25.5 24.499805 L 22.5 10.000195 L 19.5 24.499805 L 14.299805 10.900195 L 13.999805 25.000195 L 6.499805 13.5 Z M 9 25.999805 " transform="matrix(6.666667,0,0,6.666667,0,0)"/>
<path style="fill-rule:nonzero;fill:rgb(100%,100%,100%);fill-opacity:1;stroke-width:1.5;stroke-linecap:butt;stroke-linejoin:round;stroke:rgb(0%,0%,0%);stroke-opacity:1;stroke-miterlimit:4;" d="M 9 25.999805 C 9 28.000195 10.5 28.000195 11.500195 30 C 12.499805 31.5 12.499805 31.000195 12 33.499805 C 10.5 34.5 10.999805 36 10.999805 36 C 9.499805 37.5 10.999805 38.500195 10.999805 38.500195 C 17.500195 39.499805 27.499805 39.499805 34.000195 38.500195 C 34.000195 38.500195 35.500195 37.5 34.000195 36 C 34.000195 36 34.5 34.5 33 33.499805 C 32.500195 31.000195 32.500195 31.5 33.499805 30 C 34.5 28.000195 36 28.000195 36 25.999805 C 27.499805 24.499805 17.500195 24.499805 9 25.999805 Z M 9 25.999805 " transform="matrix(6.666667,0,0,6.666667,0,0)"/>
<path style="fill:none;stroke-width:1.5;stroke-linecap:butt;stroke-linejoin:round;stroke:rgb(0%,0%,0%);stroke-opacity:1;stroke-miterlimit:4;" d="M 11.500195 30 C 15 28.999805 30 28.999805 33.499805 30 " transform="matrix(6.666667,0,0,6.666667,0,0)"/>
<path style="fill:none;stroke-width:1.5;stroke-linecap:butt;stroke-linejoin:round;stroke:rgb(0%,0%,0%);stroke-opacity:1;stroke-miterlimit:4;" d="M 12 33.499805 C 18 32.500195 27 32.500195 33 33.499805 " transform="matrix(6.666667,0,0,6.666667,0,0)"/>
<path style="fill-rule:nonzero;fill:rgb(100%,100%,100%);fill-opacity:1;stroke-width:1.5;stroke-linecap:butt;stroke-linejoin:round;stroke:rgb(0%,0%,0%);stroke-opacity:1;stroke-miterlimit:4;" d="M 7.999805 12 C 7.999805 13.104492 7.104492 13.999805 6 13.999805 C 4.895508 13.999805 4.000195 13.104492 4.000195 12 C 4.000195 10.895508 4.895508 10.000195 6 10.000195 C 7.104492 10.000195 7.999805 10.895508 7.999805 12 Z M 7.999805 12 " transform="matrix(6.666667,0,0,6.666667,0,0)"/>
<path style="fill-rule:nonzero;fill:rgb(100%,100%,100%);fill-opacity:1;stroke-width:1.5;stroke-linecap:butt;stroke-linejoin:round;stroke:rgb(0%,0%,0%);stroke-opacity:1;stroke-miterlimit:4;" d="M 16.000195 9 C 16.000195 10.104492 15.104297 10.999805 13.999805 10.999805 C 12.895312 10.999805 12 10.104492 12 9 C 12 7.895508 12.895312 7.000195 13.999805 7.000195 C 15.104297 7.000195 16.000195 7.895508 16.000195 9 Z M 16.000195 9 " transform="matrix(6.666667,0,0,6.666667,0,0)"/>
<path style="fill-rule:nonzero;fill:rgb(100%,100%,100%);fill-opacity:1;stroke-width:1.5;stroke-linecap:butt;stroke-linejoin:round;stroke:rgb(0%,0%,0%);stroke-opacity:1;stroke-miterlimit:4;" d="M 24.499805 7.999805 C 24.499805 9.104297 23.604492 10.000195 22.5 10.000195 C 21.395508 10.000195 20.500195 9.104297 20.500195 7.999805 C 20.500195 6.895313 21.395508 6 22.5 6 C 23.604492 6 24.499805 6.895313 24.499805 7.999805 Z M 24.499805 7.999805 " transform="matrix(6.666667,0,0,6.666667,0,0)"/>
<path style="fill-rule:nonzero;fill:rgb(100%,100%,100%);fill-opacity:1;stroke-width:1.5;stroke-linecap:butt;stroke-linejoin:round;stroke:rgb(0%,0%,0%);stroke-opacity:1;stroke-miterlimit:4;" d="M 33 9 C 33 10.104492 32.104687 10.999805 31.000195 10.999805 C 29.895703 10.999805 28.999805 10.104492 28.999805 9 C 28.999805 7.895508 29.895703 7.000195 31.000195 7.000195 C 32.104687 7.000195 33 7.895508 33 9 Z M 33 9 " transform="matrix(6.666667,0,0,6.666667,0,0)"/>
<path style="fill-rule:nonzero;fill:rgb(100%,100%,100%);fill-opacity:1;stroke-width:1.5;stroke-linecap:butt;stroke-linejoin:round;stroke:rgb(0%,0%,0%);stroke-opacity:1;stroke-miterlimit:4;" d="M 40.999805 12 C 40.999805 13.104492 40.104492 13.999805 39 13.999805 C 37.895508 13.999805 37.000195 13.104492 37.000195 12 C 37.000195 10.895508 37.895508 10.000195 39 10.000195 C 40.104492 10.000195 40.999805 10.895508 40.999805 12 Z M 40.999805 12 " transform="matrix(6.666667,0,0,6.666667,0,0)"/>
</g>
</svg>
