<?xml version="1.0" encoding="UTF-8"?>
<svg xmlns="http://www.w3.org/2000/svg" xmlns:xlink="http://www.w3.org/1999/xlink" width="300px" height="300px" viewBox="0 0 300 300" version="1.1">
<g id="surface1">
<path style="fill-rule:evenodd;fill:rgb(100%,100%,100%);fill-opacity:1;stroke-width:1.5;stroke-linecap:round;stroke-linejoin:round;stroke:rgb(0%,0%,0%);stroke-opacity:1;stroke-miterlimit:4;" d="M 22.000195 10.000195 C 32.500195 10.999805 38.500195 18 37.999805 39 L 15 39 C 15 30 25.000195 32.500195 22.999805 18 " transform="matrix(6.666667,0,0,6.666667,0,2)"/>
<path style="fill-rule:evenodd;fill:rgb(100%,100%,100%);fill-opacity:1;stroke-width:1.5;stroke-linecap:round;stroke-linejoin:round;stroke:rgb(0%,0%,0%);stroke-opacity:1;stroke-miterlimit:4;" d="M 24 18 C 24.380273 20.909766 18.45 25.369922 16.000195 27 C 13.000195 28.999805 13.180078 31.340039 10.999805 31.000195 C 9.958008 30.059766 12.410156 27.959766 10.999805 28.000195 C 10.000195 28.000195 11.190234 29.230078 10.000195 30 C 9 30 5.99707 31.000195 6 25.999805 C 6 24 12 13.999805 12 13.999805 C 12 13.999805 13.890234 12.100195 13.999805 10.5 C 13.269727 9.50625 13.5 8.500195 13.5 7.5 C 14.500195 6.499805 16.5 10.000195 16.5 10.000195 L 18.499805 10.000195 C 18.499805 10.000195 19.280273 8.008008 21 7.000195 C 22.000195 7.000195 22.000195 10.000195 22.000195 10.000195 " transform="matrix(6.666667,0,0,6.666667,0,2)"/>
<path style="fill-rule:evenodd;fill:rgb(0%,0%,0%);fill-opacity:1;stroke-width:1.5;stroke-linecap:round;stroke-linejoin:round;stroke:rgb(0%,0%,0%);stroke-opacity:1;stroke-miterlimit:4;" d="M 9.499805 25.5 C 9.499805 25.775977 9.275977 25.999805 9 25.999805 C 8.724023 25.999805 8.500195 25.775977 8.500195 25.5 C 8.500195 25.224023 8.724023 25.000195 9 25.000195 C 9.275977 25.000195 9.499805 25.224023 9.499805 25.5 Z M 9.499805 25.5 " transform="matrix(6.666667,0,0,6.666667,0,2)"/>
<path style="fill-rule:evenodd;fill:rgb(0%,0%,0%);fill-opacity:1;stroke-width:1.5;stroke-linecap:round;stroke-linejoin:round;stroke:rgb(0%,0%,0%);stroke-opacity:1;stroke-miterlimit:4;" d="M 15.000176 15.499898 C 15.000022 16.328148 14.776264 16.999974 14.500083 16.999753 C 14.224195 17.000041 14.000107 16.328325 14.00026 15.500075 C 14.000121 14.671318 14.224172 14 14.50006 13.999713 C 14.776241 13.999933 15.000329 14.671649 15.000176 15.499898 Z M 15.000176 15.499898 " transform="matrix(5.773333,3.333333,-3.333333,5.773333,64.62,-32.486667)"/>
</g>
</svg>
