<?xml version="1.0" encoding="UTF-8"?>
<svg xmlns="http://www.w3.org/2000/svg" xmlns:xlink="http://www.w3.org/1999/xlink" width="1000px" height="1000px" viewBox="0 0 1000 1000" version="1.1">
<g id="surface1">
<path style="fill:none;stroke-width:1.5;stroke-linecap:round;stroke-linejoin:miter;stroke:rgb(0%,0%,0%);stroke-opacity:1;stroke-miterlimit:4;" d="M 22.499999 11.630214 L 22.499999 5.999941 " transform="matrix(22.222223,0,0,22.222223,0,0)"/>
<path style="fill-rule:evenodd;fill:rgb(0%,0%,0%);fill-opacity:1;stroke-width:1.5;stroke-linecap:butt;stroke-linejoin:miter;stroke:rgb(0%,0%,0%);stroke-opacity:1;stroke-miterlimit:4;" d="M 22.499999 25.000135 C 22.499999 25.000135 26.999999 17.500253 25.500057 14.500195 C 25.500057 14.500195 24.499862 12.000058 22.499999 12.000058 C 20.500136 12.000058 19.49994 14.500195 19.49994 14.500195 C 17.999999 17.500253 22.499999 25.000135 22.499999 25.000135 " transform="matrix(22.222223,0,0,22.222223,0,0)"/>
<path style="fill-rule:evenodd;fill:rgb(0%,0%,0%);fill-opacity:1;stroke-width:1.5;stroke-linecap:round;stroke-linejoin:round;stroke:rgb(0%,0%,0%);stroke-opacity:1;stroke-miterlimit:4;" d="M 12.499804 37.000193 C 17.999999 40.499998 26.999999 40.499998 32.500194 37.000193 L 32.500194 30.000057 C 32.500194 30.000057 41.500193 25.500057 38.500135 19.49994 C 34.500057 13.000253 25.000135 16.000136 22.499999 23.500194 L 22.499999 26.999999 L 22.499999 23.500194 C 19.999862 16.000136 10.499941 13.000253 6.499863 19.49994 C 3.499805 25.500057 12.499804 30.000057 12.499804 30.000057 L 12.499804 37.000193 " transform="matrix(22.222223,0,0,22.222223,0,0)"/>
<path style="fill:none;stroke-width:1.5;stroke-linecap:round;stroke-linejoin:miter;stroke:rgb(0%,0%,0%);stroke-opacity:1;stroke-miterlimit:4;" d="M 19.999862 7.999804 L 25.000135 7.999804 " transform="matrix(22.222223,0,0,22.222223,0,0)"/>
<path style="fill:none;stroke-width:1.5;stroke-linecap:round;stroke-linejoin:round;stroke:rgb(100%,100%,100%);stroke-opacity:1;stroke-miterlimit:4;" d="M 31.999744 29.500135 C 31.999744 29.500135 40.499998 25.500057 38.030272 19.849745 C 34.150252 13.999745 25.000135 17.999999 22.499999 24.499862 L 22.499999 26.599745 L 22.499999 24.499862 C 19.999862 17.999999 10.849746 13.999745 6.969726 19.849745 C 4.5 25.500057 13.000253 29.500135 13.000253 29.500135 " transform="matrix(22.222223,0,0,22.222223,0,0)"/>
<path style="fill:none;stroke-width:1.5;stroke-linecap:round;stroke-linejoin:round;stroke:rgb(100%,100%,100%);stroke-opacity:1;stroke-miterlimit:4;" d="M 12.499804 30.000057 C 17.999999 26.999999 26.999999 26.999999 32.500194 30.000057 M 12.499804 33.499862 C 17.999999 30.499803 26.999999 30.499803 32.500194 33.499862 M 12.499804 37.000193 C 17.999999 34.000135 26.999999 34.000135 32.500194 37.000193 " transform="matrix(22.222223,0,0,22.222223,0,0)"/>
</g>
</svg>
