<?xml version="1.0" encoding="UTF-8"?>
<svg xmlns="http://www.w3.org/2000/svg" xmlns:xlink="http://www.w3.org/1999/xlink" width="300px" height="300px" viewBox="0 0 300 300" version="1.1">
<g id="surface1">
<path style="fill-rule:evenodd;fill:rgb(0%,0%,0%);fill-opacity:1;stroke-width:1.5;stroke-linecap:butt;stroke-linejoin:round;stroke:rgb(0%,0%,0%);stroke-opacity:1;stroke-miterlimit:4;" d="M 9 39 L 36 39 L 36 36 L 9 36 Z M 9 39 " transform="matrix(6.666667,0,0,6.666667,0,2)"/>
<path style="fill-rule:evenodd;fill:rgb(0%,0%,0%);fill-opacity:1;stroke-width:1.5;stroke-linecap:butt;stroke-linejoin:round;stroke:rgb(0%,0%,0%);stroke-opacity:1;stroke-miterlimit:4;" d="M 12.499805 31.999805 L 13.999805 29.500195 L 31.000195 29.500195 L 32.500195 31.999805 Z M 12.499805 31.999805 " transform="matrix(6.666667,0,0,6.666667,0,2)"/>
<path style="fill-rule:evenodd;fill:rgb(0%,0%,0%);fill-opacity:1;stroke-width:1.5;stroke-linecap:butt;stroke-linejoin:round;stroke:rgb(0%,0%,0%);stroke-opacity:1;stroke-miterlimit:4;" d="M 12 36 L 12 31.999805 L 33 31.999805 L 33 36 Z M 12 36 " transform="matrix(6.666667,0,0,6.666667,0,2)"/>
<path style="fill-rule:evenodd;fill:rgb(0%,0%,0%);fill-opacity:1;stroke-width:1.5;stroke-linecap:butt;stroke-linejoin:miter;stroke:rgb(0%,0%,0%);stroke-opacity:1;stroke-miterlimit:4;" d="M 13.999805 29.500195 L 13.999805 16.5 L 31.000195 16.5 L 31.000195 29.500195 Z M 13.999805 29.500195 " transform="matrix(6.666667,0,0,6.666667,0,2)"/>
<path style="fill-rule:evenodd;fill:rgb(0%,0%,0%);fill-opacity:1;stroke-width:1.5;stroke-linecap:butt;stroke-linejoin:round;stroke:rgb(0%,0%,0%);stroke-opacity:1;stroke-miterlimit:4;" d="M 13.999805 16.5 L 10.999805 13.999805 L 34.000195 13.999805 L 31.000195 16.5 Z M 13.999805 16.5 " transform="matrix(6.666667,0,0,6.666667,0,2)"/>
<path style="fill-rule:evenodd;fill:rgb(0%,0%,0%);fill-opacity:1;stroke-width:1.5;stroke-linecap:butt;stroke-linejoin:round;stroke:rgb(0%,0%,0%);stroke-opacity:1;stroke-miterlimit:4;" d="M 10.999805 13.999805 L 10.999805 9 L 15 9 L 15 10.999805 L 19.999805 10.999805 L 19.999805 9 L 25.000195 9 L 25.000195 10.999805 L 30 10.999805 L 30 9 L 34.000195 9 L 34.000195 13.999805 Z M 10.999805 13.999805 " transform="matrix(6.666667,0,0,6.666667,0,2)"/>
<path style="fill:none;stroke-width:1;stroke-linecap:round;stroke-linejoin:miter;stroke:rgb(100%,100%,100%);stroke-opacity:1;stroke-miterlimit:4;" d="M 12 35.500195 L 33 35.500195 " transform="matrix(6.666667,0,0,6.666667,0,2)"/>
<path style="fill:none;stroke-width:1;stroke-linecap:round;stroke-linejoin:miter;stroke:rgb(100%,100%,100%);stroke-opacity:1;stroke-miterlimit:4;" d="M 13.000195 31.5 L 31.999805 31.5 " transform="matrix(6.666667,0,0,6.666667,0,2)"/>
<path style="fill:none;stroke-width:1;stroke-linecap:round;stroke-linejoin:miter;stroke:rgb(100%,100%,100%);stroke-opacity:1;stroke-miterlimit:4;" d="M 13.999805 29.500195 L 31.000195 29.500195 " transform="matrix(6.666667,0,0,6.666667,0,2)"/>
<path style="fill:none;stroke-width:1;stroke-linecap:round;stroke-linejoin:miter;stroke:rgb(100%,100%,100%);stroke-opacity:1;stroke-miterlimit:4;" d="M 13.999805 16.5 L 31.000195 16.5 " transform="matrix(6.666667,0,0,6.666667,0,2)"/>
<path style="fill:none;stroke-width:1;stroke-linecap:round;stroke-linejoin:miter;stroke:rgb(100%,100%,100%);stroke-opacity:1;stroke-miterlimit:4;" d="M 10.999805 13.999805 L 34.000195 13.999805 " transform="matrix(6.666667,0,0,6.666667,0,2)"/>
</g>
</svg>
